<svg width="1550" height="206" viewBox="0 0 1550 206" fill="none" xmlns="http://www.w3.org/2000/svg">
<path fill-rule="evenodd" clip-rule="evenodd" d="M638.252 0.493988C677.163 0.494046 715.234 25.4312 715.234 79.5082V126.02C715.234 179.818 677.163 205.037 638.252 205.037H636.573C597.102 205.037 559.591 179.818 559.591 126.02V79.5082C559.591 25.4311 597.102 0.493988 636.573 0.493988H638.252ZM636.573 29.9145C611.379 29.9145 590.943 48.6879 590.943 78.6688V126.862C590.943 156.843 611.379 175.616 636.573 175.616H638.252C663.446 175.616 683.882 156.843 683.882 126.862V78.6688C683.882 48.6879 663.446 29.9145 638.252 29.9145H636.573Z" fill="white"/>
<path fill-rule="evenodd" clip-rule="evenodd" d="M209.95 4.69784C209.951 51.7698 246.902 88.7549 293.931 88.7554V116.775C246.622 116.776 209.671 153.761 209.95 200.833H181.958C181.678 153.761 144.726 116.776 97.9776 116.775H0V88.7554H97.9776C145.006 88.7552 181.958 51.77 181.958 4.69784H209.95ZM195.955 58.4933C185.878 76.706 169.92 92.6783 151.724 102.765C169.92 112.852 185.878 128.823 195.955 147.035C206.033 128.823 221.989 112.852 240.184 102.765C221.989 92.6783 206.033 76.706 195.955 58.4933Z" fill="white"/>
<path d="M495.764 159.084H499.403V4.69784H529.637V200.833H482.048L416.542 46.445H412.623V200.833H382.391V4.69784H430.259L495.764 159.084Z" fill="white"/>
<path d="M834.766 111.451H839.244L886.833 4.69784H929.105V200.833H898.871V57.0927H894.671L847.363 163.287H826.648L779.339 57.0927H775.139V200.833H744.907V4.69784H787.177L834.766 111.451Z" fill="white"/>
<path d="M1050.88 32.7156H1021.48V172.813H1050.88V200.833H961.856V172.813H991.251V32.7156H961.856V4.69784H1050.88V32.7156Z" fill="white"/>
<path d="M1197 159.084H1200.64V4.69784H1230.87V200.833H1183.28L1117.78 46.445H1113.86V200.833H1083.63V4.69784H1131.5L1197 159.084Z" fill="white"/>
<path fill-rule="evenodd" clip-rule="evenodd" d="M1419.05 200.833H1386.88L1386.8 200.581L1386.8 200.552C1386.77 200.453 1386.74 200.355 1386.71 200.257C1378.83 173.838 1362.07 160.765 1336.13 160.765C1310.38 160.765 1293.3 173.934 1285.46 200.552L1285.45 200.546L1285.37 200.833H1253.27L1312.06 4.69784H1360.2L1419.05 200.833ZM1325.17 65.0764H1325.15L1301.81 144.739C1310.75 137.366 1323.44 133.008 1336.13 133.008C1348.82 133.008 1361.23 137.093 1370.43 144.721L1369.71 142.266L1369.72 142.272L1347.1 65.0764H1347.09L1338.09 34.3967H1334.17L1325.17 65.0764Z" fill="white"/>
<path d="M1471.62 172.813H1550V200.833H1441.39V4.69784H1471.62V172.813Z" fill="white"/>
</svg>
