<svg width="1551" height="206" viewBox="0 0 1551 206" fill="none" xmlns="http://www.w3.org/2000/svg">
<path fill-rule="evenodd" clip-rule="evenodd" d="M638.752 0.493988C677.663 0.494046 715.734 25.4312 715.734 79.5082V126.02C715.734 179.818 677.663 205.037 638.752 205.037H637.073C597.602 205.037 560.091 179.818 560.091 126.02V79.5082C560.091 25.4311 597.602 0.493988 637.073 0.493988H638.752ZM637.073 29.9145C611.879 29.9145 591.443 48.6879 591.443 78.6688V126.862C591.443 156.843 611.879 175.616 637.073 175.616H638.752C663.946 175.616 684.382 156.843 684.382 126.862V78.6688C684.382 48.6879 663.946 29.9145 638.752 29.9145H637.073Z" fill="black"/>
<path fill-rule="evenodd" clip-rule="evenodd" d="M210.45 4.69784C210.451 51.7698 247.402 88.7549 294.431 88.7554V116.775C247.122 116.776 210.171 153.761 210.45 200.833H182.458C182.178 153.761 145.226 116.776 98.4776 116.775H0.5V88.7554H98.4776C145.506 88.7552 182.458 51.77 182.458 4.69784H210.45ZM196.455 58.4933C186.378 76.706 170.42 92.6783 152.224 102.765C170.42 112.852 186.378 128.823 196.455 147.035C206.533 128.823 222.489 112.852 240.684 102.765C222.489 92.6783 206.533 76.706 196.455 58.4933Z" fill="black"/>
<path d="M496.264 159.084H499.903V4.69784H530.137V200.833H482.548L417.042 46.445H413.123V200.833H382.891V4.69784H430.759L496.264 159.084Z" fill="black"/>
<path d="M835.266 111.451H839.744L887.333 4.69784H929.605V200.833H899.371V57.0927H895.171L847.863 163.287H827.148L779.839 57.0927H775.639V200.833H745.407V4.69784H787.677L835.266 111.451Z" fill="black"/>
<path d="M1051.38 32.7156H1021.98V172.813H1051.38V200.833H962.356V172.813H991.751V32.7156H962.356V4.69784H1051.38V32.7156Z" fill="black"/>
<path d="M1197.5 159.084H1201.14V4.69784H1231.37V200.833H1183.78L1118.28 46.445H1114.36V200.833H1084.13V4.69784H1132L1197.5 159.084Z" fill="black"/>
<path fill-rule="evenodd" clip-rule="evenodd" d="M1419.55 200.833H1387.38L1387.3 200.581L1387.3 200.552C1387.27 200.453 1387.24 200.355 1387.21 200.257C1379.33 173.838 1362.57 160.765 1336.63 160.765C1310.88 160.765 1293.8 173.934 1285.96 200.552L1285.95 200.546L1285.87 200.833H1253.77L1312.56 4.69784H1360.7L1419.55 200.833ZM1325.67 65.0764H1325.65L1302.31 144.739C1311.25 137.366 1323.94 133.008 1336.63 133.008C1349.32 133.008 1361.73 137.093 1370.93 144.721L1370.21 142.266L1370.22 142.272L1347.6 65.0764H1347.59L1338.59 34.3967H1334.67L1325.67 65.0764Z" fill="black"/>
<path d="M1472.12 172.813H1550.5V200.833H1441.89V4.69784H1472.12V172.813Z" fill="black"/>
</svg>
